PathFileType  4	(X/Y/Z) subject11/noload/static/trial01/expdata
DataRate	CameraRate	NumFrames	NumMarkers	Units	OrigDataRate	OrigDataStartFrame	OrigNumFrames
100.0	100.0	4	64	mm	100.0	36	287
Frame#	Time	R.Shoulder			L.Shoulder			R.Clavicle			L.Clavicle			R.Biceps			R.Elbow			R.MElbow			R.Forearm			R.Wrist			L.Biceps			L.Elbow			L.MElbow			L.Forearm			L.Wrist			R.ASIS			L.ASIS			R.PSIS			S2			L.PSIS			R.TH1			R.TH2			R.TH3			R.Knee			R.MKnee			R.SH1			R.SH2			R.SH3			R.SH4			R.Ankle			R.MAnkle			R.Heel			R.MT5			R.Toe			L.TH1			L.TH2			L.TH3			L.TH4			L.Knee			L.MKnee			L.SH1			L.SH2			L.SH3			L.Ankle			L.MAnkle			L.Heel			L.MT5			L.Toe			R_HJC			L_HJC			L.HeelGround			L.ToeGround			L.MT5Ground			L.AnkleJoint			L.AnkleJointGround			L.KneeJoint			R.HeelGround			R.ToeGround			R.MT5Ground			R.AnkleJoint			R.AnkleJointGround			R.KneeJoint			MidASIS			MidPSIS			MidClavicle			
		X1	Y1	Z1	X2	Y2	Z2	X3	Y3	Z3	X4	Y4	Z4	X5	Y5	Z5	X6	Y6	Z6	X7	Y7	Z7	X8	Y8	Z8	X9	Y9	Z9	X10	Y10	Z10	X11	Y11	Z11	X12	Y12	Z12	X13	Y13	Z13	X14	Y14	Z14	X15	Y15	Z15	X16	Y16	Z16	X17	Y17	Z17	X18	Y18	Z18	X19	Y19	Z19	X20	Y20	Z20	X21	Y21	Z21	X22	Y22	Z22	X23	Y23	Z23	X24	Y24	Z24	X25	Y25	Z25	X26	Y26	Z26	X27	Y27	Z27	X28	Y28	Z28	X29	Y29	Z29	X30	Y30	Z30	X31	Y31	Z31	X32	Y32	Z32	X33	Y33	Z33	X34	Y34	Z34	X35	Y35	Z35	X36	Y36	Z36	X37	Y37	Z37	X38	Y38	Z38	X39	Y39	Z39	X40	Y40	Z40	X41	Y41	Z41	X42	Y42	Z42	X43	Y43	Z43	X44	Y44	Z44	X45	Y45	Z45	X46	Y46	Z46	X47	Y47	Z47	X48	Y48	Z48	X49	Y49	Z49	X50	Y50	Z50	X51	Y51	Z51	X52	Y52	Z52	X53	Y53	Z53	X54	Y54	Z54	X55	Y55	Z55	X56	Y56	Z56	X57	Y57	Z57	X58	Y58	Z58	X59	Y59	Z59	X60	Y60	Z60	X61	Y61	Z61	X62	Y62	Z62	X63	Y63	Z63	X64	Y64	Z64	

36	0.35000	462.959	1568.329	-261.082	742.576	1572.322	-250.477	570.873	1495.940	-173.147	626.792	1495.424	-170.561	250.608	1510.536	-261.891	150.018	1528.101	-291.384	167.285	1466.943	-357.516	131.838	1400.607	-201.599	109.824	1298.373	-143.232	927.064	1538.252	-241.125	1050.188	1519.743	-237.717	1041.416	1456.157	-302.731	1064.822	1411.884	-134.867	1066.461	1322.304	-68.736	460.264	1028.981	-138.806	717.109	1017.153	-143.479	541.980	1038.575	-347.812	584.312	1016.627	-361.615	631.800	1035.822	-349.708	376.784	798.270	-184.838	374.186	791.825	-293.812	390.798	662.581	-295.395	400.642	528.679	-256.441	530.360	502.900	-247.058	385.126	435.353	-250.200	371.240	324.045	-259.914	386.647	437.851	-334.312	379.631	318.258	-344.487	388.145	113.232	-304.588	473.319	110.771	-278.993	436.003	37.059	-377.597	340.504	39.387	-193.598	431.180	55.690	-77.788	798.164	821.155	-174.509	771.589	692.761	-170.697	806.679	828.454	-280.944	779.987	695.439	-288.827	761.196	532.572	-259.157	628.669	506.746	-276.027	762.368	425.283	-237.327	790.407	446.309	-329.522	797.691	330.385	-345.585	797.464	116.372	-296.927	710.895	112.137	-289.277	755.197	35.583	-384.796	838.540	36.194	-193.555	743.297	58.445	-89.501	474.540	939.880	-238.562	689.410	934.288	-237.993	755.197	0.000	-384.796	743.297	0.000	-89.501	838.540	0.000	-193.555	754.179	114.255	-293.102	754.179	0.000	-293.102	694.933	519.659	-267.592	436.003	0.000	-377.597	431.180	0.000	-77.788	340.504	0.000	-193.598	430.732	112.001	-291.791	430.732	0.000	-291.791	465.501	515.789	-251.749	588.687	1023.067	-141.143	586.890	1037.198	-348.760	598.832	1495.682	-171.854
37	0.36000	463.177	1568.362	-261.481	742.742	1572.325	-250.935	570.974	1496.050	-173.455	626.909	1495.453	-170.887	250.621	1510.533	-262.069	150.132	1527.953	-291.572	167.384	1466.574	-357.610	131.906	1400.649	-201.544	110.038	1298.423	-142.982	927.296	1538.093	-241.398	1050.280	1519.501	-238.009	1041.605	1455.703	-302.822	1064.995	1411.870	-134.882	1066.469	1322.396	-68.520	460.047	1028.978	-138.380	717.198	1017.157	-143.185	541.850	1038.797	-347.419	584.219	1016.868	-361.214	631.852	1035.999	-349.293	376.761	798.166	-184.694	374.398	791.755	-293.679	390.815	662.594	-295.358	400.484	528.740	-256.463	530.347	502.832	-247.074	385.109	435.342	-250.202	371.253	324.041	-259.905	386.650	437.832	-334.304	379.647	318.240	-344.474	388.163	113.228	-304.592	473.243	110.745	-279.059	435.986	37.083	-377.602	340.531	39.490	-193.586	431.247	55.624	-77.774	798.192	821.013	-174.441	771.602	692.776	-170.707	806.602	828.593	-280.905	779.881	695.435	-288.810	761.170	532.560	-259.181	628.655	506.748	-276.032	762.304	425.382	-237.313	790.397	446.337	-329.546	797.635	330.495	-345.604	797.374	116.415	-296.980	710.884	112.152	-289.276	755.167	35.653	-384.814	838.538	36.200	-193.568	743.290	58.464	-89.500	474.483	939.980	-238.250	689.353	934.383	-237.716	755.167	0.000	-384.814	743.290	0.000	-89.500	838.538	0.000	-193.568	754.129	114.284	-293.128	754.129	0.000	-293.128	694.912	519.654	-267.606	435.986	0.000	-377.602	431.247	0.000	-77.774	340.531	0.000	-193.586	430.703	111.987	-291.826	430.703	0.000	-291.826	465.415	515.786	-251.769	588.622	1023.068	-140.782	586.851	1037.398	-348.356	598.942	1495.751	-172.171
38	0.37000	463.367	1568.386	-261.932	742.918	1572.271	-251.380	571.053	1496.176	-173.805	626.837	1495.667	-171.141	250.806	1510.408	-262.349	150.352	1527.681	-291.800	167.355	1466.280	-357.721	132.006	1400.765	-201.480	110.209	1298.553	-142.727	927.561	1537.885	-241.726	1050.480	1519.234	-238.334	1041.887	1455.159	-302.889	1065.057	1411.842	-134.865	1066.497	1322.513	-68.271	460.138	1028.950	-137.959	717.245	1017.171	-142.918	541.877	1038.996	-347.014	584.086	1017.173	-360.845	631.928	1036.267	-348.879	376.814	798.063	-184.464	374.542	791.708	-293.502	390.769	662.662	-295.258	400.469	528.746	-256.453	530.327	502.799	-247.112	385.085	435.329	-250.173	371.241	324.034	-259.906	386.618	437.843	-334.299	379.620	318.274	-344.482	388.153	113.209	-304.593	473.070	110.770	-279.164	435.968	37.090	-377.609	340.531	39.474	-193.586	431.212	55.712	-77.802	798.195	821.041	-174.378	771.633	692.745	-170.696	806.574	828.666	-280.845	779.812	695.585	-288.828	761.173	532.686	-259.223	628.642	506.756	-276.022	762.328	425.398	-237.378	790.457	446.422	-329.525	797.584	330.607	-345.658	797.346	116.489	-296.981	710.881	112.189	-289.264	755.125	35.692	-384.825	838.394	36.261	-193.622	743.264	58.515	-89.501	474.529	940.079	-237.938	689.399	934.509	-237.503	755.125	0.000	-384.825	743.264	0.000	-89.501	838.394	0.000	-193.622	754.113	114.339	-293.123	754.113	0.000	-293.123	694.908	519.721	-267.623	435.968	0.000	-377.609	431.212	0.000	-77.802	340.531	0.000	-193.586	430.611	111.989	-291.879	430.611	0.000	-291.879	465.398	515.773	-251.782	588.692	1023.061	-140.439	586.902	1037.631	-347.947	598.945	1495.921	-172.473
39	0.38000	463.449	1568.397	-262.482	743.022	1572.207	-251.778	570.944	1496.312	-174.134	626.802	1495.954	-171.519	251.046	1510.407	-262.640	150.514	1527.483	-292.053	167.460	1466.012	-357.857	132.132	1400.842	-201.441	110.540	1298.750	-142.426	927.744	1537.663	-242.076	1050.803	1518.972	-238.576	1042.084	1454.750	-302.979	1065.113	1411.793	-134.837	1066.453	1322.559	-68.011	460.154	1028.867	-137.564	717.068	1017.222	-142.515	541.825	1039.100	-346.468	583.952	1017.382	-360.367	631.853	1036.596	-348.449	376.825	798.049	-184.237	374.594	791.889	-293.299	390.672	662.749	-295.117	400.458	528.743	-256.408	530.325	502.865	-247.086	384.862	435.427	-250.148	371.242	324.068	-259.889	386.594	437.859	-334.269	379.515	318.335	-344.493	388.147	113.215	-304.611	473.042	110.912	-279.152	435.963	37.153	-377.608	340.517	39.446	-193.590	431.136	55.762	-77.820	798.227	821.036	-174.279	771.688	692.735	-170.686	806.446	828.740	-280.748	779.517	695.647	-288.781	761.178	532.695	-259.243	628.638	506.766	-276.032	762.307	425.552	-237.320	790.343	446.461	-329.599	797.529	330.714	-345.687	797.324	116.621	-296.946	710.876	112.222	-289.250	755.079	35.776	-384.820	838.482	36.331	-193.589	743.230	58.554	-89.501	474.502	940.095	-237.579	689.377	934.665	-237.160	755.079	0.000	-384.820	743.230	0.000	-89.501	838.482	0.000	-193.589	754.100	114.421	-293.098	754.100	0.000	-293.098	694.908	519.731	-267.637	435.963	0.000	-377.608	431.136	0.000	-77.820	340.517	0.000	-193.590	430.594	112.064	-291.881	430.594	0.000	-291.881	465.392	515.804	-251.747	588.611	1023.044	-140.039	586.839	1037.848	-347.459	598.873	1496.133	-172.827
